<svg width="43" height="43" viewBox="0 0 43 43" fill="none" xmlns="http://www.w3.org/2000/svg">
<path d="M21.4775 42.16C32.9548 42.16 42.259 32.8475 42.259 21.36C42.259 9.87248 32.9548 0.559998 21.4775 0.559998C10.0002 0.559998 0.696045 9.87248 0.696045 21.36C0.696045 32.8475 10.0002 42.16 21.4775 42.16Z" fill="#55ACE3"/>
<path d="M32.4918 16.056C31.7645 16.368 30.9332 16.576 30.102 16.68C30.9332 16.16 31.6606 15.328 31.9723 14.392C31.141 14.912 30.3098 15.224 29.2707 15.432C28.5433 14.6 27.4004 14.08 26.2574 14.08C23.9714 14.08 22.1011 15.952 22.1011 18.24C22.1011 18.552 22.1011 18.864 22.205 19.176C18.776 18.968 15.6588 17.304 13.5807 14.808C13.269 15.432 13.0611 16.16 13.0611 16.888C13.0611 18.344 13.7885 19.592 14.9315 20.32C14.2041 20.32 13.5807 20.112 13.0611 19.8C13.0611 21.776 14.5158 23.544 16.3862 23.856C16.0745 23.96 15.6588 23.96 15.2432 23.96C14.9315 23.96 14.7237 23.96 14.4119 23.856C14.9315 25.52 16.4901 26.768 18.3604 26.768C16.9057 27.912 15.1393 28.536 13.1651 28.536C12.8533 28.536 12.5416 28.536 12.126 28.432C13.9963 29.576 16.1784 30.304 18.5682 30.304C26.2574 30.304 30.4137 23.96 30.4137 18.448V17.928C31.2449 17.616 31.9723 16.888 32.4918 16.056Z" fill="white"/>
</svg>
