<svg width="42" height="42" viewBox="0 0 42 42" fill="none" xmlns="http://www.w3.org/2000/svg">
<path d="M21.0354 41.72C32.3692 41.72 41.5571 32.5239 41.5571 21.18C41.5571 9.83608 32.3692 0.640015 21.0354 0.640015C9.70156 0.640015 0.513672 9.83608 0.513672 21.18C0.513672 32.5239 9.70156 41.72 21.0354 41.72Z" fill="#2878B7"/>
<path d="M29.2441 21.9444V27.6093H25.931V22.2897C25.931 20.9772 25.4478 20.0792 24.2747 20.0792C23.3775 20.0792 22.8252 20.7011 22.6184 21.2538C22.5493 21.4608 22.4802 21.7374 22.4802 22.0827V27.6093H19.1671C19.1671 27.6093 19.2362 18.6289 19.1671 17.7303H22.4802V19.112C22.8943 18.4214 23.7224 17.4542 25.4478 17.4542C27.5878 17.4542 29.2441 18.905 29.2441 21.9444ZM15.7164 12.964C14.6118 12.964 13.8528 13.7237 13.8528 14.6909C13.8528 15.6581 14.5433 16.4178 15.6473 16.4178C16.8204 16.4178 17.5109 15.6581 17.5109 14.6909C17.5799 13.6545 16.8895 12.964 15.7164 12.964ZM14.0601 27.6093H17.3727V17.7303H14.0601V27.6093Z" fill="white"/>
</svg>
