<svg width="42" height="42" viewBox="0 0 42 42" fill="none" xmlns="http://www.w3.org/2000/svg">
<path d="M21.0674 41.16C32.4012 41.16 41.5891 31.9639 41.5891 20.62C41.5891 9.27609 32.4012 0.0800171 21.0674 0.0800171C9.73354 0.0800171 0.545654 9.27609 0.545654 20.62C0.545654 31.9639 9.73354 41.16 21.0674 41.16Z" fill="url(#paint0_linear)"/>
<path d="M27.8197 12.404H15.341C13.932 12.404 12.8586 13.4783 12.8586 14.8885V27.3784C12.8586 28.7887 13.932 29.863 15.341 29.863H27.8197C29.2287 29.863 30.3021 28.7887 30.3021 27.3784V14.8885C30.3021 13.4783 29.2287 12.404 27.8197 12.404ZM21.5801 26.3712C24.4651 26.3712 26.8134 24.0879 26.8134 21.335C26.8134 20.8649 26.7464 20.3277 26.6123 19.9247H28.0883V27.0425C28.0883 27.3784 27.8197 27.7144 27.4171 27.7144H15.7436C15.408 27.7144 15.0724 27.4455 15.0724 27.0425V19.8577H16.6154C16.4814 20.3277 16.4143 20.7978 16.4143 21.2679C16.3473 24.0879 18.6956 26.3712 21.5801 26.3712ZM21.5801 24.3567C19.702 24.3567 18.226 22.8794 18.226 21.0662C18.226 19.2534 19.702 17.7761 21.5801 17.7761C23.4587 17.7761 24.9347 19.2534 24.9347 21.0662C24.9347 22.9465 23.4587 24.3567 21.5801 24.3567ZM28.0208 17.1719C28.0208 17.5743 27.6857 17.9103 27.283 17.9103H25.4044C25.0018 17.9103 24.6667 17.5743 24.6667 17.1719V15.3586C24.6667 14.9556 25.0018 14.6197 25.4044 14.6197H27.283C27.6857 14.6197 28.0208 14.9556 28.0208 15.3586V17.1719Z" fill="white"/>
<defs>
<linearGradient id="paint0_linear" x1="9.26713" y1="36.5383" x2="36.4838" y2="8.32023" gradientUnits="userSpaceOnUse">
<stop stop-color="#EEA054"/>
<stop offset="0.502762" stop-color="#D64763"/>
<stop offset="1" stop-color="#B62A99"/>
</linearGradient>
</defs>
</svg>
