<svg width="42" height="42" viewBox="0 0 42 42" fill="none" xmlns="http://www.w3.org/2000/svg">
<path d="M20.8865 41.16C32.2203 41.16 41.4082 31.9639 41.4082 20.62C41.4082 9.27609 32.2203 0.0800171 20.8865 0.0800171C9.55263 0.0800171 0.364746 9.27609 0.364746 20.62C0.364746 31.9639 9.55263 41.16 20.8865 41.16Z" fill="#2F89CE"/>
<path d="M9.9594 21.0043L14.6773 22.765L16.5165 28.6878C16.5965 29.0882 17.076 29.1678 17.3961 28.9281L20.0348 26.767C20.2748 26.5267 20.6749 26.5267 20.9944 26.767L25.7128 30.2083C26.0323 30.4486 26.5124 30.2884 26.5924 29.8885L30.1107 13.0806C30.1907 12.6802 29.7912 12.2803 29.3911 12.4399L9.9594 19.9638C9.47935 20.124 9.47935 20.8442 9.9594 21.0043ZM16.2765 21.8847L25.5528 16.2021C25.7128 16.122 25.8728 16.3618 25.7128 16.4418L18.1156 23.5653C17.8761 23.8056 17.6361 24.1259 17.6361 24.5258L17.3961 26.4466C17.3961 26.6869 16.9965 26.767 16.9165 26.4466L15.9569 22.9252C15.7169 22.5248 15.8769 22.0448 16.2765 21.8847Z" fill="white"/>
</svg>
