<svg width="42" height="42" viewBox="0 0 42 42" fill="none" xmlns="http://www.w3.org/2000/svg">
<path d="M20.5869 41.72C31.9207 41.72 41.1086 32.5239 41.1086 21.18C41.1086 9.83608 31.9207 0.640015 20.5869 0.640015C9.25307 0.640015 0.0651855 9.83608 0.0651855 21.18C0.0651855 32.5239 9.25307 41.72 20.5869 41.72Z" fill="#333333"/>
<path fill-rule="evenodd" clip-rule="evenodd" d="M12.6379 17.1339C12.6623 16.8952 12.5703 16.6602 12.3916 16.5L10.5722 14.317V13.991H16.2242L20.593 23.5278L24.4335 13.991H29.8216V14.317L28.265 15.8022C28.131 15.9041 28.0645 16.0715 28.092 16.2369V27.1506C28.0645 27.3155 28.131 27.4829 28.265 27.5848L29.7852 29.07V29.396H22.1397V29.07L23.7144 27.5484C23.8687 27.395 23.8687 27.3498 23.8687 27.1142V18.293L19.4911 29.3606H18.8999L13.8027 18.293V25.7108C13.7606 26.0222 13.8645 26.3363 14.0848 26.5615L16.1323 29.0336V29.3606H10.3259V29.0336L12.3739 26.5615C12.5932 26.3358 12.6904 26.0196 12.6379 25.7108V17.1339Z" fill="white"/>
</svg>
