<svg width="43" height="42" viewBox="0 0 43 42" fill="none" xmlns="http://www.w3.org/2000/svg">
<path d="M21.2951 41.68C32.7724 41.68 42.0766 32.3675 42.0766 20.88C42.0766 9.39249 32.7724 0.0800171 21.2951 0.0800171C9.81785 0.0800171 0.513672 9.39249 0.513672 20.88C0.513672 32.3675 9.81785 41.68 21.2951 41.68Z" fill="#48C95F"/>
<path d="M29.532 12.625C27.4788 10.5772 24.7419 9.44 21.8527 9.44C15.8464 9.44 10.9804 14.2932 10.9804 20.2841C10.9804 22.18 11.5129 24.0759 12.4252 25.6682L10.9045 31.28L16.6828 29.7632C18.2794 30.5978 20.0281 31.0522 21.8527 31.0522C27.8591 31.0522 32.7251 26.1991 32.7251 20.2082C32.6492 17.4028 31.5847 14.6722 29.532 12.625ZM27.099 24.1518C26.8709 24.7582 25.8064 25.365 25.2744 25.4409C24.8177 25.5168 24.2099 25.5168 23.6015 25.365C23.2212 25.2132 22.6892 25.0618 22.0808 24.7582C19.3439 23.6209 17.5951 20.8909 17.4429 20.6632C17.2912 20.5118 16.3025 19.2222 16.3025 17.8572C16.3025 16.4922 16.9868 15.8859 17.2148 15.5822C17.4429 15.2791 17.7474 15.2791 17.9754 15.2791C18.1271 15.2791 18.3552 15.2791 18.5074 15.2791C18.6597 15.2791 18.8877 15.2032 19.1158 15.7341C19.3439 16.265 19.8759 17.63 19.9523 17.7059C20.0281 17.8578 20.0281 18.0091 19.9523 18.1609C19.8759 18.3122 19.8001 18.4641 19.6478 18.6159C19.4961 18.7672 19.3439 18.995 19.268 19.0709C19.1158 19.2222 18.9636 19.3741 19.1158 19.6018C19.268 19.905 19.8 20.7391 20.6365 21.4972C21.7005 22.4072 22.537 22.7109 22.8414 22.8628C23.1454 23.0141 23.2976 22.9382 23.4493 22.7868C23.6015 22.635 24.1335 22.0282 24.2857 21.725C24.438 21.4218 24.666 21.4978 24.8941 21.5732C25.1222 21.6491 26.4906 22.3318 26.7187 22.4832C27.0226 22.635 27.1749 22.7109 27.2507 22.7868C27.3271 23.0141 27.3271 23.545 27.099 24.1518Z" fill="white"/>
</svg>
