<svg width="42" height="42" viewBox="0 0 42 42" fill="none" xmlns="http://www.w3.org/2000/svg">
<path d="M20.7373 41.72C32.0711 41.72 41.259 32.5239 41.259 21.18C41.259 9.83608 32.0711 0.640015 20.7373 0.640015C9.40346 0.640015 0.215576 9.83608 0.215576 21.18C0.215576 32.5239 9.40346 41.72 20.7373 41.72Z" fill="#4E6297"/>
<path d="M29.972 14.8319C29.972 13.2937 28.6165 11.937 27.0797 11.937H15.4208C13.884 11.937 12.5286 13.2937 12.5286 14.8319V26.5012C12.5286 28.0388 13.884 29.396 15.4208 29.396H21.2952V22.7925H19.1262V19.8977H21.2952V18.7215C21.2952 16.7314 22.7416 15.0128 24.5491 15.0128H26.8989V17.9076H24.5491C24.2779 17.9076 24.0067 18.1786 24.0067 18.7215V19.8977H26.8989V22.7925H24.0067V29.396H27.0797C28.6165 29.396 29.972 28.0388 29.972 26.5012V14.8319Z" fill="white"/>
</svg>
