<svg width="640" height="640" viewBox="0 0 640 640" fill="none" xmlns="http://www.w3.org/2000/svg">
<rect x="5" y="5" width="630" height="630" rx="38" fill="#004400" stroke="white" stroke-width="10"/>
<path d="M103.1 287.9L95 286.7V281.7H123.7V286.7L113.8 287.9V350.1L139.6 349.2L145.5 332.4L151.6 333.3L148.1 356H94.8V351.1L103.1 350.1V287.9ZM157.879 328.1C157.879 322.1 159.112 316.9 161.579 312.5C164.046 308.1 167.279 304.767 171.279 302.5C175.346 300.167 179.679 299 184.279 299C192.679 299 198.979 301.667 203.179 307C207.446 312.333 209.579 319.333 209.579 328C209.579 334.067 208.346 339.3 205.879 343.7C203.412 348.1 200.146 351.433 196.079 353.7C192.079 355.967 187.779 357.1 183.179 357.1C174.779 357.1 168.446 354.433 164.179 349.1C159.979 343.767 157.879 336.767 157.879 328.1ZM183.779 351.4C188.379 351.4 191.912 349.5 194.379 345.7C196.846 341.9 198.079 336.267 198.079 328.8C198.079 321.4 196.946 315.533 194.679 311.2C192.412 306.867 188.779 304.7 183.779 304.7C179.179 304.7 175.612 306.6 173.079 310.4C170.612 314.2 169.379 319.833 169.379 327.3C169.379 334.7 170.546 340.567 172.879 344.9C175.212 349.233 178.846 351.4 183.779 351.4ZM218.719 341C218.719 334.733 221.852 330.133 228.119 327.2C234.385 324.2 242.319 322.6 251.919 322.4V319.6C251.919 316.467 251.585 314 250.919 312.2C250.252 310.4 249.085 309.1 247.419 308.3C245.819 307.433 243.519 307 240.519 307C237.119 307 234.052 307.5 231.319 308.5C228.652 309.433 225.985 310.6 223.319 312L220.819 306.8C221.685 306.067 223.285 305.1 225.619 303.9C227.952 302.7 230.652 301.633 233.719 300.7C236.785 299.767 239.852 299.3 242.919 299.3C247.652 299.3 251.385 299.967 254.119 301.3C256.919 302.567 258.919 304.633 260.119 307.5C261.319 310.367 261.919 314.2 261.919 319V351.1H267.819V355.5C266.485 355.833 264.785 356.167 262.719 356.5C260.719 356.833 258.952 357 257.419 357C255.552 357 254.285 356.7 253.619 356.1C252.952 355.567 252.619 354.333 252.619 352.4V349.1C250.619 351.1 248.152 352.933 245.219 354.6C242.352 356.267 239.085 357.1 235.419 357.1C230.619 357.1 226.619 355.733 223.419 353C220.285 350.2 218.719 346.2 218.719 341ZM239.719 350.3C241.452 350.3 243.452 349.767 245.719 348.7C247.985 347.633 250.052 346.367 251.919 344.9V327.7C244.652 327.7 239.152 328.833 235.419 331.1C231.752 333.3 229.919 336.2 229.919 339.8C229.919 343.4 230.785 346.067 232.519 347.8C234.319 349.467 236.719 350.3 239.719 350.3ZM296.373 357.1C292.373 357.1 288.707 356.1 285.373 354.1C282.04 352.1 279.373 349.033 277.373 344.9C275.44 340.767 274.473 335.667 274.473 329.6C274.473 323.933 275.64 318.767 277.973 314.1C280.307 309.433 283.64 305.767 287.973 303.1C292.373 300.367 297.54 299 303.473 299C306.873 299 309.973 299.367 312.773 300.1V281.4L302.573 280.2V275.9L320.573 274.1H320.873L323.073 275.7V350.9H328.873V355.5C326.74 355.967 324.873 356.333 323.273 356.6C321.74 356.867 320.107 357 318.373 357C316.64 357 315.407 356.7 314.673 356.1C313.94 355.5 313.573 354.233 313.573 352.3V349.1C311.707 351.367 309.24 353.267 306.173 354.8C303.173 356.333 299.907 357.1 296.373 357.1ZM300.373 350C302.973 350 305.407 349.433 307.673 348.3C309.94 347.1 311.64 345.733 312.773 344.2V307.6C312.24 306.8 310.973 306.1 308.973 305.5C307.04 304.833 304.973 304.5 302.773 304.5C297.573 304.5 293.407 306.5 290.273 310.5C287.207 314.433 285.673 320.533 285.673 328.8C285.673 336 287.04 341.333 289.773 344.8C292.507 348.267 296.04 350 300.373 350ZM348.683 290.5C346.549 290.5 344.949 289.9 343.883 288.7C342.816 287.5 342.283 285.967 342.283 284.1C342.283 281.967 342.916 280.2 344.183 278.8C345.516 277.4 347.316 276.7 349.583 276.7C351.849 276.7 353.516 277.3 354.583 278.5C355.649 279.7 356.183 281.233 356.183 283.1C356.183 285.367 355.516 287.167 354.183 288.5C352.916 289.833 351.116 290.5 348.783 290.5H348.683ZM344.683 308.2L337.083 306.4V301.1L352.583 299.2H352.783L355.083 301V350.3L363.083 351.1V356H336.583V351.1L344.683 350.2V308.2ZM376.184 308.2L368.984 306.4V301L383.284 299.2H383.584L385.684 301V305.2L385.584 307.6C387.984 305.467 391.15 303.533 395.084 301.8C399.017 300.067 402.784 299.2 406.384 299.2C410.584 299.2 413.817 300 416.084 301.6C418.417 303.2 420.05 305.667 420.984 309C421.917 312.267 422.384 316.7 422.384 322.3V350.3L429.384 351V356H405.684V351.1L411.884 350.3V322.2C411.884 318.267 411.617 315.2 411.084 313C410.55 310.733 409.55 309.067 408.084 308C406.617 306.867 404.484 306.3 401.684 306.3C399.284 306.3 396.717 306.9 393.984 308.1C391.25 309.3 388.817 310.7 386.684 312.3V350.2L393.484 351.1V356H369.884V351.1L376.184 350.2V308.2ZM460.49 383C451.957 383 445.757 381.633 441.89 378.9C438.09 376.233 436.19 372.533 436.19 367.8C436.19 364.867 437.09 362.167 438.89 359.7C440.757 357.233 442.957 355.367 445.49 354.1C442.423 352.367 440.89 349.567 440.89 345.7C440.89 343.3 441.59 341.033 442.99 338.9C444.39 336.767 446.223 335.133 448.49 334C445.157 332.533 442.59 330.433 440.79 327.7C439.057 324.967 438.19 321.733 438.19 318C438.19 314.133 439.257 310.767 441.39 307.9C443.59 305.033 446.457 302.833 449.99 301.3C453.59 299.767 457.39 299 461.39 299C468.123 299 473.39 300.4 477.19 303.2C478.19 302.2 479.723 301.233 481.79 300.3C483.857 299.367 486.057 298.9 488.39 298.9H491.79V307.7H480.79C482.39 310.167 483.19 313.033 483.19 316.3C483.19 320.233 482.19 323.733 480.19 326.8C478.257 329.8 475.523 332.133 471.99 333.8C468.523 335.467 464.59 336.3 460.19 336.3C457.323 336.3 454.757 336 452.49 335.4C451.557 336.333 450.79 337.367 450.19 338.5C449.59 339.633 449.29 340.733 449.29 341.8C449.29 344.2 450.09 345.867 451.69 346.8C453.29 347.667 456.157 348.1 460.29 348.1H471.59C478.057 348.1 482.857 349.333 485.99 351.8C489.123 354.267 490.69 357.767 490.69 362.3C490.69 366.1 489.323 369.567 486.59 372.7C483.857 375.9 480.157 378.4 475.49 380.2C470.89 382.067 465.89 383 460.49 383ZM461.19 330.8C468.79 330.8 472.59 326.3 472.59 317.3C472.59 312.833 471.59 309.567 469.59 307.5C467.657 305.367 464.723 304.3 460.79 304.3C457.123 304.3 454.223 305.333 452.09 307.4C449.957 309.4 448.89 312.633 448.89 317.1C448.89 321.3 449.89 324.633 451.89 327.1C453.957 329.567 457.057 330.8 461.19 330.8ZM461.39 377.2C464.657 377.2 467.723 376.7 470.59 375.7C473.523 374.767 475.89 373.333 477.69 371.4C479.49 369.533 480.39 367.333 480.39 364.8C480.39 361.8 479.59 359.6 477.99 358.2C476.39 356.867 473.29 356.2 468.69 356.2H456.89C454.223 356.2 452.123 356.033 450.59 355.7C447.857 358.7 446.49 362.067 446.49 365.8C446.49 369.533 447.623 372.367 449.89 374.3C452.157 376.233 455.99 377.2 461.39 377.2ZM505.532 357C503.799 357 502.299 356.4 501.032 355.2C499.765 354 499.132 352.467 499.132 350.6C499.132 348.533 499.865 346.8 501.332 345.4C502.865 344 504.632 343.3 506.632 343.3C508.699 343.3 510.265 343.933 511.332 345.2C512.465 346.4 513.032 347.9 513.032 349.7C513.032 351.9 512.299 353.667 510.832 355C509.365 356.333 507.599 357 505.532 357ZM531.997 357C530.264 357 528.764 356.4 527.497 355.2C526.23 354 525.597 352.467 525.597 350.6C525.597 348.533 526.33 346.8 527.797 345.4C529.33 344 531.097 343.3 533.097 343.3C535.164 343.3 536.73 343.933 537.797 345.2C538.93 346.4 539.497 347.9 539.497 349.7C539.497 351.9 538.764 353.667 537.297 355C535.83 356.333 534.064 357 531.997 357ZM558.462 357C556.728 357 555.228 356.4 553.962 355.2C552.695 354 552.062 352.467 552.062 350.6C552.062 348.533 552.795 346.8 554.262 345.4C555.795 344 557.562 343.3 559.562 343.3C561.628 343.3 563.195 343.933 564.262 345.2C565.395 346.4 565.962 347.9 565.962 349.7C565.962 351.9 565.228 353.667 563.762 355C562.295 356.333 560.528 357 558.462 357Z" fill="white"/>
</svg>
