<svg width="20" height="21" viewBox="0 0 20 21" fill="none" xmlns="http://www.w3.org/2000/svg">
<path d="M19.6273 8.24873L17.9673 6.73873L17.1173 5.99873L10.6273 0.248734C10.4448 0.0884151 10.2102 0 9.96728 0C9.72437 0 9.48977 0.0884151 9.30728 0.248734L2.81728 5.99873L1.96728 6.73873L0.307278 8.24873C0.121445 8.42723 0.0116842 8.67057 0.000880246 8.92801C-0.00992376 9.18545 0.0790634 9.43713 0.249287 9.63057C0.419511 9.824 0.657833 9.94427 0.91456 9.96628C1.17129 9.9883 1.42661 9.91037 1.62728 9.74873L1.96728 9.44873V17.9987C1.96728 18.7944 2.28335 19.5574 2.84596 20.1201C3.40857 20.6827 4.17163 20.9987 4.96728 20.9987H7.96728C8.23249 20.9987 8.48685 20.8934 8.67439 20.7058C8.86192 20.5183 8.96728 20.264 8.96728 19.9987V14.9987C8.96728 14.7335 9.07264 14.4792 9.26017 14.2916C9.44771 14.1041 9.70206 13.9987 9.96728 13.9987C10.1003 14.0006 10.2316 14.029 10.3535 14.0822C10.4754 14.1354 10.5855 14.2124 10.6773 14.3087C10.7708 14.3974 10.8448 14.5045 10.8948 14.6233C10.9447 14.7421 10.9694 14.8699 10.9673 14.9987V19.9987C10.9673 20.264 11.0726 20.5183 11.2602 20.7058C11.4477 20.8934 11.7021 20.9987 11.9673 20.9987H14.9673C15.7629 20.9987 16.526 20.6827 17.0886 20.1201C17.6512 19.5574 17.9673 18.7944 17.9673 17.9987V9.44873L18.3073 9.74873C18.5063 9.92354 18.7665 10.0122 19.0309 9.99536C19.2952 9.97849 19.5421 9.85742 19.7173 9.65873C19.8921 9.45971 19.9808 9.19947 19.9639 8.93512C19.947 8.67077 19.826 8.42391 19.6273 8.24873ZM15.9673 17.9987C15.9673 18.264 15.8619 18.5183 15.6744 18.7058C15.4868 18.8934 15.2325 18.9987 14.9673 18.9987H12.9673V14.9987C12.9673 14.2031 12.6512 13.44 12.0886 12.8774C11.526 12.3148 10.7629 11.9987 9.96728 11.9987C9.17163 11.9987 8.40857 12.3148 7.84596 12.8774C7.28335 13.44 6.96728 14.2031 6.96728 14.9987V18.9987H4.96728C4.70206 18.9987 4.44771 18.8934 4.26017 18.7058C4.07264 18.5183 3.96728 18.264 3.96728 17.9987V7.66873L9.96728 2.33873L15.9673 7.66873V17.9987Z" fill="black"/>
</svg>
